<svg id="Layer_1" enable-background="new 0 0 510 510" height="512" viewBox="0 0 510 510" width="512" xmlns="http://www.w3.org/2000/svg"><g id="XMLID_1849_"><path id="XMLID_1868_" d="m90 60h-30v450h330v-30h-300z"/><path id="XMLID_2004_" d="m120 0v450h330v-450c-23.309 0-319.177 0-330 0zm60 60h30v30h-30zm0 60h30v30h-30zm0 60h30v30h-30zm0 60h105v30h-105zm210 150c-3.332 0-206.668 0-210 0 0-10.492 0-19.508 0-30h210zm0-60c-3.332 0-206.668 0-210 0 0-10.492 0-19.508 0-30h210zm0-120c-18.706 0-126.815 0-150 0 0-10.492 0-19.508 0-30h150zm0-60c-18.706 0-126.815 0-150 0 0-10.492 0-19.508 0-30h150zm0-60c-18.706 0-126.815 0-150 0 0-10.492 0-19.508 0-30h150z"/></g></svg>