<svg fill="#f6f6f6" id="Capa_1" enable-background="new 0 0 511.848 511.848" height="512" viewBox="0 0 511.848 511.848" width="512" xmlns="http://www.w3.org/2000/svg"><g><path d="m176.924 126.924v18 31c0 43.561 35.439 79 79 79s79-35.439 79-79v-31-18z"/><path d="m383.924 24.924h-256c-8.284 0-15 6.716-15 15s6.716 15 15 15h49v42h158v-42h34v17c0 8.284 6.716 15 15 15s15-6.716 15-15v-32c0-8.284-6.716-15-15-15z"/><path d="m468.344 384.924c1.665-4.695 2.58-9.742 2.58-15v-180c0-24.813-20.187-45-45-45h-61v31c0 33.509-15.204 63.531-39.071 83.541 33.833 38.592 49.214 99.099 54.581 125.459z"/><path d="m131.414 384.924c5.367-26.36 20.747-86.867 54.581-125.459-23.867-20.011-39.071-50.032-39.071-83.541v-31h-61c-24.813 0-45 20.187-45 45v180c0 5.258.915 10.305 2.58 15z"/><path d="m367.958 414.924c-.017 0-.035.002-.052.002-.014 0-.029-.002-.043-.002h-367.863c1.582 39.968 34.575 72 74.924 72h362c40.349 0 73.342-32.032 74.924-72z"/><path d="m255.924 326.235 56.563-35.352c-3.979-5.806-8.11-10.915-12.391-15.321-13.51 6.013-28.457 9.362-44.172 9.362-15.718 0-30.666-3.35-44.177-9.364-4.281 4.406-8.412 9.513-12.391 15.32z"/><path d="m270.924 384.924h78.786c-3.323-14.865-9.296-37.383-18.795-59.61-1.214-2.84-2.448-5.588-3.7-8.257l-56.291 35.182z"/><path d="m240.924 352.238-56.29-35.181c-1.323 2.819-2.626 5.724-3.905 8.734-9.413 22.147-15.313 44.406-18.601 59.133h78.796z"/></g></svg>